<svg version="1.1" xmlns="http://www.w3.org/2000/svg" xmlns:xlink="http://www.w3.org/1999/xlink" x="0px" y="0px" viewBox="-47 170.9 500 500" style="enable-background:new -47 170.9 500 500;" xml:space="preserve">

	<g id="icon-mask" fill="#FFFFFF">

		<g id="grabber">
			<path d="M144.8,226.9H82.5v-28h90.3v114.6h-28V226.9z M260.3,313.4v-86.6h62.3v-28h-90.3v114.6H260.3z M350.6,341.4v-86.6h32.1v-28h-60.1v114.6H350.6z M54.5,556.9v28h28v-28H54.5z M410.7,282.8v-28h-28v28H410.7l0,212.1h-28v88h28 v-88h28V282.8H410.7z M354.8,642.9H110.4v-58h-28v86h0.3h300v-88h-28V642.9z M232.3,170.9h-59.6v28h59.6V170.9z M-29.5,360.9v100.5 h28V360.9H-29.5z M26.5,509.1v47.7h28v-47.7H26.5z M-1.5,461.4v47.7h28v-47.7H-1.5z M54.5,405.6h28V226.9h-28v106.1h-56v28h56 V405.6z"/>
		</g>

	</g>

</svg>
