<svg version="1.1" xmlns="http://www.w3.org/2000/svg" xmlns:xlink="http://www.w3.org/1999/xlink" x="0px" y="0px" viewBox="-47 170.9 500 500" style="enable-background:new -47 170.9 500 500;" xml:space="preserve">

	<path id="background" fill="#FFC83B" d="M453.1,238.5c0-37.3-30.2-67.6-67.6-67.6H20.6c-37.3,0-67.7,30.2-67.7,67.6v364.8 c0,37.3,30.2,67.6,67.6,67.6h364.8c37.3,0,67.6-30.2,67.6-67.6V238.5H453.1z"/>

	<g id="icon" fill="#FFFFFF">

		<path id="grabber" d="M161.5,281.2h-44.9V261h65v82.5h-20.2V281.2z M244.7,343.5v-62.3h44.9V261h-65v82.5H244.7z M309.7,363.7v-62.3h23.1v-20.1h-43.3v82.5H309.7z M96.5,518.8V539h20.1v-20.1H96.5z M353,321.5v-20.1h-20.2v20.1H353l0,152.7 h-20.1v63.3H353v-63.3h20.1V321.5H353z M312.7,580.7H136.8V539h-20.2v61.9h0.2h216v-63.3h-20.1V580.7z M224.6,240.9h-42.9V261h42.9 V240.9z M36.1,377.7v72.4h20.1v-72.4H36.1z M76.4,484.4v34.4h20.2v-34.4H76.4z M56.2,450.1v34.4h20.1v-34.4H56.2z M96.5,409.9h20.1 V281.2H96.5v76.4H56.2v20.1h40.3V409.9z"/>

	</g>

</svg>
